<svg xmlns="http://www.w3.org/2000/svg" width="165" height="165" viewBox="0 0 165 165" fill="none">
  <path fill-rule="evenodd" clip-rule="evenodd" d="M77.1709 3.83749L72.7692 7.62915V39.7342V71.8392L75.9423 69.1325C77.6879 67.6442 81.6851 64.0692 84.8269 61.1884L90.5384 55.9509V31.8592V7.76749L87.7487 5.34249C80.96 -0.561681 82.0896 -0.400847 77.1709 3.83749ZM93.9789 29.1667C93.9814 42 94.1287 52.5 94.3064 52.5C94.4841 52.5 97.1841 50.4375 100.306 47.9167C103.43 45.3959 106.34 43.3334 106.776 43.3334C107.239 43.3334 107.506 38.0625 107.418 30.625L107.269 17.9167L101.252 11.875C97.9423 8.55169 94.9511 5.83332 94.6042 5.83332C94.2573 5.83332 93.9755 16.3334 93.9789 29.1667ZM61.9401 17.2942L55.7657 22.9167L56.0171 54.9959L56.2692 87.075L62.4343 81.2459L68.5985 75.4167L68.3574 43.5442L68.1154 11.6725L61.9401 17.2942ZM0.577869 27.2917C0.867254 28.0934 1.57295 29.3125 2.14748 30C2.72202 30.6875 4.28233 33.2709 5.61502 35.7409C6.94772 38.2109 8.42172 40.8359 8.89136 41.5742C9.36013 42.3125 11.5948 46.1042 13.8566 50C16.1192 53.8959 18.7541 58.3959 19.7128 60C20.6707 61.6042 22.6244 64.9092 24.0544 67.345C25.4844 69.7809 27.6057 73.3767 28.7692 75.3375C29.9327 77.2975 32.9154 82.43 35.398 86.7425C37.8806 91.055 41.3075 96.9042 43.0134 99.7409C44.7192 102.578 47.2577 106.861 48.6538 109.259L51.1923 113.621L51.4267 102.375L51.6611 91.1292L45.8759 81.6067C42.6944 76.3684 37.3061 67.2084 33.902 61.25C30.4987 55.2917 26.999 49.4009 26.1258 48.1584C25.2526 46.9167 24.5384 45.6592 24.5384 45.3634C24.5384 45.0675 23.3961 43.1584 22 41.1209C20.6038 39.0834 19.4615 37.2475 19.4615 37.0417C19.4615 36.835 26.6961 36.6667 35.5384 36.6667H51.6154V31.25V25.8334H25.8339C1.64487 25.8334 0.0854079 25.9234 0.577869 27.2917ZM111.692 31.25V36.6667H127.839C136.721 36.6667 143.848 36.9484 143.678 37.2917C143.508 37.635 142.812 39.0417 142.133 40.4167C141.453 41.7917 140.577 43.2917 140.185 43.75C139.793 44.2084 138.458 46.3467 137.217 48.5025C129.143 62.5309 125.92 68.0692 125.193 69.1667C123.671 71.4609 115.998 84.5317 113.807 88.5617C111.754 92.3359 111.656 93.1042 111.879 103.562L112.115 114.583L113.605 111.667C114.425 110.063 116.587 106.313 118.41 103.333C121.927 97.5825 129.283 85.13 132.437 79.5834C133.48 77.75 135.686 74 137.339 71.25C138.993 68.5 142.37 62.7309 144.845 58.43C147.321 54.1284 150.386 48.8784 151.657 46.7634C152.927 44.6475 154.93 41.2292 156.106 39.1667C157.283 37.1042 158.718 34.6809 159.296 33.7817C159.874 32.8825 161.208 30.7259 162.261 28.99L164.175 25.8334H137.934H111.692V31.25ZM100.074 52.9809L93.9552 58.4425L93.9679 101.097L93.9797 143.75L95.6737 141.667C96.6054 140.521 98.356 137.708 99.5644 135.417C100.772 133.125 102 131.063 102.292 130.833C102.584 130.604 103.582 128.917 104.508 127.083C105.434 125.25 106.478 123.625 106.827 123.473C107.657 123.109 107.657 47.4975 106.827 47.5092C106.478 47.5142 103.439 49.9767 100.074 52.9809ZM85.7729 65.625C83.8944 67.3442 80.201 70.7025 77.5635 73.0884L72.7692 77.4267V114.165C72.7692 139.091 73.0603 151.228 73.6754 151.91C74.173 152.463 76.0904 155.635 77.935 158.958C79.7787 162.282 81.5607 164.998 81.8941 164.994C82.2275 164.992 84.3082 161.848 86.5192 158.008L90.5384 151.026V106.763C90.5384 82.4184 90.2347 62.5 89.8624 62.5C89.4909 62.5 87.6505 63.9067 85.7729 65.625ZM61.5348 87.3125L55.8461 92.9584L55.8478 107.104L55.8504 121.25L60.208 128.75C62.6044 132.875 65.3087 137.657 66.2174 139.375C67.1262 141.094 68.0197 142.5 68.2042 142.5C68.3878 142.5 68.5384 128.813 68.5384 112.083C68.5384 95.3542 68.2423 81.6667 67.881 81.6667C67.5197 81.6667 64.6639 84.2075 61.5348 87.3125Z" fill="white"/>
</svg>